<svg xmlns="http://www.w3.org/2000/svg" xmlns:xlink="http://www.w3.org/1999/xlink" version="1.1" x="0px" y="0px" viewBox="0 0 100 125" enable-background="new 0 0 100 100" xml:space="preserve"><path fill="#FFFFFF" d="M50,47.154c-4.669,0-8.468,3.8-8.468,8.47c0,4.669,3.799,8.468,8.468,8.468c4.67,0,8.469-3.799,8.469-8.468  C58.469,50.954,54.67,47.154,50,47.154z M50,60.475c-2.675,0-4.852-2.176-4.852-4.851c0-2.676,2.177-4.854,4.852-4.854  c2.676,0,4.852,2.178,4.852,4.854C54.852,58.299,52.676,60.475,50,60.475z M48.232,53.854c-0.46,0.46-0.73,1.11-0.73,1.771  s0.27,1.3,0.73,1.77c0.47,0.46,1.11,0.73,1.77,0.73s1.3-0.271,1.759-0.73c0.471-0.47,0.74-1.109,0.74-1.77s-0.27-1.301-0.74-1.771  C50.843,52.924,49.163,52.924,48.232,53.854z M78.113,40.63h-4.105C72.408,33.095,60.824,29.639,50,29.639  c-10.823,0-22.407,3.456-24.007,10.991h-4.106c-0.999,0-1.808,0.81-1.808,1.809c0,0.998,0.81,1.808,1.808,1.808h4.176l0.756,5.194  c0.059,0.395,0.235,1.535,2.82,3.13C31.004,62.6,39.602,70.361,50,70.361c10.399,0,18.997-7.762,20.362-17.791  c2.586-1.595,2.762-2.735,2.82-3.131l0.771-5.193h4.16c0.998,0,1.809-0.81,1.809-1.808C79.922,41.439,79.111,40.63,78.113,40.63z   M50,66.744c-9.349,0-16.955-7.605-16.955-16.955c0-3.345,7.448-5.964,16.955-5.964c9.508,0,16.955,2.619,16.955,5.964  C66.955,59.139,59.35,66.744,50,66.744z M69.885,47.016C67.422,42.337,58.68,40.208,50,40.208c-8.678,0-17.419,2.129-19.885,6.807  l-0.698-4.699C29.563,36.429,40.09,33.255,50,33.255c9.91,0,20.439,3.174,20.583,9.061L69.885,47.016z"/></svg>